<svg width="543" height="486" viewBox="0 0 543 486" fill="none" xmlns="http://www.w3.org/2000/svg">
<path d="M248.766 92.7388L290.36 190.815L292.501 195.864L297.72 197.549L404.612 232.061L297.72 266.572L292.501 268.257L290.36 273.306L248.766 371.382L207.172 273.306L205.031 268.257L199.811 266.572L92.9196 232.061L199.811 197.549L205.031 195.864L207.172 190.815L248.766 92.7388Z" stroke="#278AFF" stroke-width="24"/>
<path d="M248.766 76.824L295.831 189.12L296.096 189.753L296.748 189.966L423.313 231.315L296.748 272.664L296.096 272.877L295.831 273.51L248.766 385.806L201.701 273.51L201.436 272.877L200.784 272.664L74.2189 231.315L200.784 189.966L201.436 189.753L201.701 189.12L248.766 76.824Z" stroke="black" stroke-width="3"/>
<path d="M372.669 138.535L332.99 235.502L330.979 240.418L333.797 244.935L390.327 335.542L282.365 298.043L276.982 296.174L271.836 298.649L170.33 347.465L210.009 250.498L212.021 245.582L209.203 241.065L152.673 150.458L260.635 187.957L266.018 189.826L271.164 187.351L372.669 138.535Z" stroke="#278AFF" stroke-width="24"/>
<path d="M384.919 125.886L338.424 238.152L338.169 238.766L338.519 239.332L403.974 345.183L277.931 301.895L277.256 301.663L276.614 301.975L159.172 358.988L205.667 246.722L205.922 246.108L205.571 245.542L140.117 139.691L266.16 182.979L266.834 183.21L267.477 182.899L384.919 125.886Z" stroke="black" stroke-width="3"/>
<path d="M138.254 133.11C138.254 136.852 134.835 140.066 130.382 140.066C125.929 140.066 122.51 136.852 122.51 133.11C122.51 129.368 125.929 126.154 130.382 126.154C134.835 126.154 138.254 129.368 138.254 133.11Z" fill="white" stroke="black" stroke-width="2"/>
<path d="M256.36 67.971C256.36 71.7129 252.941 74.9269 248.489 74.9269C244.036 74.9269 240.617 71.7129 240.617 67.971C240.617 64.2291 244.036 61.0151 248.489 61.0151C252.941 61.0151 256.36 64.2291 256.36 67.971Z" fill="white" stroke="black" stroke-width="2"/>
<path d="M399.973 119.187C399.973 122.929 396.554 126.143 392.101 126.143C387.649 126.143 384.229 122.929 384.229 119.187C384.229 115.445 387.649 112.231 392.101 112.231C396.554 112.231 399.973 115.445 399.973 119.187Z" fill="white" stroke="black" stroke-width="2"/>
<path d="M442.669 231.066C442.669 234.808 439.25 238.022 434.797 238.022C430.344 238.022 426.925 234.808 426.925 231.066C426.925 227.324 430.344 224.11 434.797 224.11C439.25 224.11 442.669 227.324 442.669 231.066Z" fill="white" stroke="black" stroke-width="2"/>
<path d="M421.044 352.89C421.044 356.632 417.625 359.846 413.172 359.846C408.719 359.846 405.3 356.632 405.3 352.89C405.3 349.149 408.719 345.935 413.172 345.935C417.625 345.935 421.044 349.149 421.044 352.89Z" fill="white" stroke="black" stroke-width="2"/>
<path d="M256.36 394.161C256.36 397.903 252.941 401.117 248.489 401.117C244.036 401.117 240.617 397.903 240.617 394.161C240.617 390.42 244.036 387.206 248.489 387.206C252.941 387.206 256.36 390.42 256.36 394.161Z" fill="white" stroke="black" stroke-width="2"/>
<path d="M160.434 367.31C160.434 371.052 157.015 374.266 152.562 374.266C148.109 374.266 144.69 371.052 144.69 367.31C144.69 363.568 148.109 360.354 152.562 360.354C157.015 360.354 160.434 363.568 160.434 367.31Z" fill="white" stroke="black" stroke-width="2"/>
<path d="M70.6065 232.061C70.6065 235.803 67.1874 239.017 62.7346 239.017C58.2819 239.017 54.8628 235.803 54.8628 232.061C54.8628 228.319 58.2819 225.105 62.7346 225.105C67.1874 225.105 70.6065 228.319 70.6065 232.061Z" fill="white" stroke="black" stroke-width="2"/>
<g filter="url(#filter0_d_631_350)">
<path d="M248.766 92.7388L290.36 190.815L292.501 195.864L297.72 197.549L404.612 232.061L297.72 266.572L292.501 268.257L290.36 273.306L248.766 371.382L207.172 273.306L205.031 268.257L199.811 266.572L92.9196 232.061L199.811 197.549L205.031 195.864L207.172 190.815L248.766 92.7388Z" stroke="#278AFF" stroke-width="24"/>
<path d="M248.766 76.824L295.831 189.12L296.096 189.753L296.748 189.966L423.313 231.315L296.748 272.664L296.096 272.877L295.831 273.51L248.766 385.806L201.701 273.51L201.436 272.877L200.784 272.664L74.2189 231.315L200.784 189.966L201.436 189.753L201.701 189.12L248.766 76.824Z" stroke="black" stroke-width="3"/>
<path d="M372.669 138.535L332.99 235.502L330.979 240.418L333.797 244.935L390.327 335.542L282.365 298.043L276.982 296.174L271.836 298.649L170.33 347.465L210.009 250.498L212.021 245.582L209.203 241.065L152.673 150.458L260.635 187.957L266.018 189.826L271.164 187.351L372.669 138.535Z" stroke="#278AFF" stroke-width="24"/>
<path d="M384.919 125.886L338.424 238.152L338.169 238.766L338.519 239.332L403.974 345.183L277.931 301.895L277.256 301.663L276.614 301.975L159.172 358.988L205.667 246.722L205.922 246.108L205.571 245.542L140.117 139.691L266.16 182.979L266.834 183.21L267.477 182.899L384.919 125.886Z" stroke="black" stroke-width="3"/>
<path d="M138.254 133.11C138.254 136.852 134.835 140.066 130.382 140.066C125.929 140.066 122.51 136.852 122.51 133.11C122.51 129.368 125.929 126.154 130.382 126.154C134.835 126.154 138.254 129.368 138.254 133.11Z" fill="white" stroke="black" stroke-width="2"/>
<path d="M256.36 67.971C256.36 71.7129 252.941 74.9269 248.489 74.9269C244.036 74.9269 240.617 71.7129 240.617 67.971C240.617 64.2291 244.036 61.0151 248.489 61.0151C252.941 61.0151 256.36 64.2291 256.36 67.971Z" fill="white" stroke="black" stroke-width="2"/>
<path d="M399.973 119.187C399.973 122.929 396.554 126.143 392.101 126.143C387.649 126.143 384.229 122.929 384.229 119.187C384.229 115.445 387.649 112.231 392.101 112.231C396.554 112.231 399.973 115.445 399.973 119.187Z" fill="white" stroke="black" stroke-width="2"/>
<path d="M442.669 231.066C442.669 234.808 439.25 238.022 434.797 238.022C430.344 238.022 426.925 234.808 426.925 231.066C426.925 227.324 430.344 224.11 434.797 224.11C439.25 224.11 442.669 227.324 442.669 231.066Z" fill="white" stroke="black" stroke-width="2"/>
<path d="M421.044 352.89C421.044 356.632 417.625 359.846 413.172 359.846C408.719 359.846 405.3 356.632 405.3 352.89C405.3 349.149 408.719 345.935 413.172 345.935C417.625 345.935 421.044 349.149 421.044 352.89Z" fill="white" stroke="black" stroke-width="2"/>
<path d="M256.36 394.161C256.36 397.903 252.941 401.117 248.489 401.117C244.036 401.117 240.617 397.903 240.617 394.161C240.617 390.42 244.036 387.206 248.489 387.206C252.941 387.206 256.36 390.42 256.36 394.161Z" fill="white" stroke="black" stroke-width="2"/>
<path d="M160.434 367.31C160.434 371.052 157.015 374.266 152.562 374.266C148.109 374.266 144.69 371.052 144.69 367.31C144.69 363.568 148.109 360.354 152.562 360.354C157.015 360.354 160.434 363.568 160.434 367.31Z" fill="white" stroke="black" stroke-width="2"/>
<path d="M70.6065 232.061C70.6065 235.803 67.1874 239.017 62.7346 239.017C58.2819 239.017 54.8628 235.803 54.8628 232.061C54.8628 228.319 58.2819 225.105 62.7346 225.105C67.1874 225.105 70.6065 228.319 70.6065 232.061Z" fill="white" stroke="black" stroke-width="2"/>
</g>
<path d="M69.6956 202.372L75.9981 191.294H63.3931L69.6956 202.372Z" fill="white"/>
<path d="M64.0696 191.689L69.6961 201.579L75.3219 191.689H64.0696ZM69.6961 202.768C69.5564 202.768 69.4276 202.692 69.3574 202.57L63.0556 191.491C62.9854 191.368 62.9854 191.218 63.0556 191.095C63.1251 190.972 63.2539 190.897 63.3936 190.897H75.9979C76.1376 190.897 76.2664 190.972 76.3359 191.095C76.4061 191.218 76.4061 191.368 76.3359 191.491L70.0341 202.57C69.9639 202.692 69.8351 202.768 69.6961 202.768Z" fill="black"/>
<path d="M466.808 384.902L469.815 379.617H463.801L466.808 384.902Z" fill="white"/>
<path d="M464.478 380.014L466.809 384.11L469.14 380.014H464.478ZM466.809 385.299C466.67 385.299 466.541 385.223 466.471 385.101L463.464 379.816C463.394 379.694 463.394 379.542 463.464 379.42C463.533 379.298 463.662 379.221 463.802 379.221H469.816C469.955 379.221 470.084 379.298 470.154 379.42C470.223 379.542 470.223 379.694 470.154 379.816L467.147 385.101C467.077 385.223 466.948 385.299 466.809 385.299Z" fill="black"/>
<path d="M465.051 104.11L468.058 98.8247H462.044L465.051 104.11Z" fill="white"/>
<path d="M462.72 99.2209L465.051 103.318L467.381 99.2209H462.72ZM465.051 104.507C464.912 104.507 464.783 104.431 464.713 104.309L461.706 99.0229C461.636 98.9001 461.636 98.7496 461.706 98.6268C461.776 98.504 461.905 98.4287 462.044 98.4287H468.057C468.197 98.4287 468.326 98.504 468.395 98.6268C468.465 98.7496 468.465 98.9001 468.395 99.0229L465.389 104.309C465.319 104.431 465.19 104.507 465.051 104.507Z" fill="black"/>
<path d="M249.374 414.063L252.381 408.777H246.367L249.374 414.063Z" fill="white"/>
<path d="M247.044 409.173L249.374 413.271L251.705 409.173H247.044ZM249.374 414.459C249.235 414.459 249.106 414.383 249.037 414.261L246.03 408.975C245.959 408.853 245.959 408.701 246.03 408.579C246.099 408.457 246.228 408.381 246.368 408.381H252.381C252.521 408.381 252.65 408.457 252.719 408.579C252.789 408.701 252.789 408.853 252.719 408.975L249.712 414.261C249.642 414.383 249.514 414.459 249.374 414.459Z" fill="black"/>
<path d="M230.517 102.097L236.819 91.0191H224.215L230.517 102.097Z" fill="white"/>
<path d="M224.891 91.4148L230.517 101.305L236.143 91.4148H224.891ZM230.517 102.493C230.377 102.493 230.248 102.418 230.179 102.295L223.877 91.2168C223.807 91.094 223.807 90.9434 223.877 90.8206C223.946 90.6979 224.075 90.6226 224.215 90.6226H236.819C236.959 90.6226 237.088 90.6979 237.157 90.8206C237.227 90.9434 237.227 91.094 237.157 91.2168L230.855 102.295C230.785 102.418 230.656 102.493 230.517 102.493Z" fill="black"/>
<path d="M394.572 330.5L400.875 319.422H388.27L394.572 330.5Z" fill="white"/>
<path d="M388.946 319.818L394.572 329.708L400.199 319.818H388.946ZM394.572 330.896C394.432 330.896 394.304 330.821 394.234 330.698L387.932 319.62C387.861 319.498 387.861 319.345 387.932 319.223C388.001 319.101 388.13 319.025 388.27 319.025H400.875C401.014 319.025 401.143 319.101 401.213 319.223C401.283 319.345 401.283 319.498 401.213 319.62L394.91 330.698C394.841 330.821 394.712 330.896 394.572 330.896Z" fill="black"/>
<path d="M50.7415 320.465L44.439 331.544H57.044L50.7415 320.465Z" fill="white"/>
<path d="M45.1155 331.148H56.3686L50.742 321.258L45.1155 331.148ZM57.0446 331.94H44.4395C44.2998 331.94 44.171 331.864 44.1015 331.742C44.0313 331.62 44.0313 331.468 44.1015 331.346L50.4033 320.267C50.543 320.023 50.9403 320.023 51.08 320.267L57.3826 331.346C57.4521 331.468 57.4521 331.62 57.3826 331.742C57.3123 331.864 57.1835 331.94 57.0446 331.94Z" fill="black"/>
<defs>
<filter id="filter0_d_631_350" x="53.8628" y="60.0151" width="405.806" height="358.102" filterUnits="userSpaceOnUse" color-interpolation-filters="sRGB">
<feFlood flood-opacity="0" result="BackgroundImageFix"/>
<feColorMatrix in="SourceAlpha" type="matrix" values="0 0 0 0 0 0 0 0 0 0 0 0 0 0 0 0 0 0 127 0" result="hardAlpha"/>
<feOffset dx="16" dy="16"/>
<feComposite in2="hardAlpha" operator="out"/>
<feColorMatrix type="matrix" values="0 0 0 0 0 0 0 0 0 0 0 0 0 0 0 0 0 0 1 0"/>
<feBlend mode="normal" in2="BackgroundImageFix" result="effect1_dropShadow_631_350"/>
<feBlend mode="normal" in="SourceGraphic" in2="effect1_dropShadow_631_350" result="shape"/>
</filter>
</defs>
</svg>
